<svg width="287" height="98" viewBox="0 0 287 98" fill="none" xmlns="http://www.w3.org/2000/svg">
<path d="M186.381 12.8742L191.869 8.83025H173.672V32.805H191.869V28.761H178.871V22.6952H189.847V18.6512H178.871V12.8742H186.381ZM163.706 12.8742L169.194 8.83025H148.397V32.805H159.229C165.295 32.805 168.761 30.0609 168.761 25.2948C168.761 20.6732 165.584 18.2179 159.807 18.2179H153.452V12.8742H163.706ZM159.085 22.1174C162.406 22.1174 163.851 23.2729 163.851 25.4392C163.851 27.6056 162.262 28.761 159.085 28.761H153.596V22.1174H159.085ZM206.456 8.83025H196.635V32.805H201.835V26.017H206.601C212.955 26.017 216.855 22.6952 216.855 17.3514C216.855 12.0076 212.811 8.83025 206.456 8.83025ZM206.456 21.973H201.835V12.7298H206.456C209.778 12.7298 211.656 14.3184 211.656 17.3514C211.511 20.3843 209.778 21.973 206.456 21.973ZM139.587 27.6056C138.143 28.3278 136.699 28.761 135.11 28.761C130.488 28.761 127.022 25.4392 127.022 20.8176C127.022 16.196 130.344 12.8742 135.11 12.8742C136.843 12.8742 138.432 13.4519 139.876 14.3184L143.631 11.5743L143.342 11.2855C141.176 9.40796 138.287 8.39697 134.965 8.39697C131.355 8.39697 128.177 9.55238 125.722 11.8632C123.411 14.174 121.967 17.3514 122.111 20.6732C122.111 23.995 123.411 27.1724 125.722 29.6276C128.177 31.9384 131.499 33.2383 134.821 33.0938C138.576 33.0938 141.753 31.794 144.064 29.4832L140.742 27.0279L139.587 27.6056Z" fill="white"/>
<path fill-rule="evenodd" clip-rule="evenodd" d="M89.8601 0.600113H89.8563C84.7689 0.593826 79.8015 2.63759 76.1664 6.19113C70.3724 11.8311 68.5509 20.7598 71.6175 28.2586C73.5317 32.9396 77.23 36.8131 81.8479 38.8903C86.7535 41.0966 92.4467 41.1728 97.408 39.089C102.081 37.1263 105.869 33.3599 107.902 28.7179C109.503 25.0609 109.977 20.9455 109.283 17.0173L105.035 20.1903C105.035 22.4863 104.657 24.7276 103.73 26.8408C102.166 30.4083 99.2549 33.306 95.6633 34.8168C91.8454 36.4227 87.4774 36.3642 83.6998 34.6629C80.1466 33.0625 77.3088 30.0902 75.8329 26.4863C74.2511 22.6236 74.3067 18.1835 75.9827 14.3622C77.5463 10.7971 80.4556 7.90094 84.0482 6.38956C88.7522 4.41059 94.2023 4.97721 98.4124 7.90439L102.25 5.03766C98.7801 2.19009 94.347 0.594379 89.8601 0.600113ZM105.475 8.37428C106.412 9.60281 107.206 10.9375 107.84 12.3516L89.8604 25.7836L82.3463 21.0099V15.267L89.8604 20.0406L105.475 8.37428Z" fill="white"/>
<path d="M59.5221 84.6333H53.9887L57.447 63.3798H62.981L59.5221 84.6333ZM49.3336 63.3798L44.0584 77.9981L43.4341 74.8502L43.4347 74.8514L41.5728 65.2934C41.5728 65.2934 41.3477 63.3798 38.9479 63.3798H30.2268L30.1245 63.7396C30.1245 63.7396 32.7914 64.2945 35.9126 66.1689L40.72 84.6339H46.4854L55.2889 63.3798H49.3336ZM92.8567 84.6333H97.9375L93.5076 63.3792H89.0595C87.0055 63.3792 86.5052 64.9631 86.5052 64.9631L78.2525 84.6333H84.0207L85.1743 81.4763H92.2085L92.8567 84.6333ZM86.7678 77.1152L89.6752 69.1616L91.3109 77.1152H86.7678ZM78.6852 68.4908L79.4748 63.9267C79.4748 63.9267 77.0382 63 74.498 63C71.7521 63 65.2312 64.2001 65.2312 70.036C65.2312 75.5268 72.8846 75.595 72.8846 78.4791C72.8846 81.3632 66.0197 80.8464 63.7541 79.0277L62.9315 83.7999C62.9315 83.7999 65.4023 85 69.1773 85C72.9534 85 78.6499 83.0449 78.6499 77.7235C78.6499 72.1975 70.9277 71.683 70.9277 69.2804C70.9283 66.8773 76.3173 67.186 78.6852 68.4908Z" fill="white"/>
<path d="M155.661 78.1715L155.507 77.8623V78.3261V78.0169L155.661 78.3261H155.816V78.0169V78.3261H155.971V77.8623H155.816L155.661 78.1715Z" fill="white"/>
<path d="M154.889 78.0169H155.198V78.3261V78.0169H155.352V77.8623H154.889V78.0169Z" fill="white"/>
<path d="M153.805 86.0563C153.186 85.1287 151.176 85.5925 151.176 87.2932C151.176 88.9939 153.032 89.4577 153.805 88.5301V88.9939H154.423V84.5103H153.805V86.0563ZM152.877 88.2209C152.259 88.2209 151.949 87.757 151.949 87.2932C151.949 86.8294 152.259 86.2109 152.877 86.2109C153.495 86.2109 153.805 86.6748 153.805 87.2932C153.805 87.9116 153.495 88.2209 152.877 88.2209Z" fill="white"/>
<path d="M149.786 86.0567V85.7475H149.168V88.8396H149.786V86.9843C149.786 86.0567 150.559 86.0567 150.869 86.2113L151.023 85.5929C150.869 85.5929 150.096 85.4383 149.786 86.0567Z" fill="white"/>
<path d="M147.466 86.0566C146.693 85.129 144.837 85.5928 144.837 87.2935C144.837 88.9942 146.693 89.458 147.466 88.5304V88.9942H148.239V85.902H147.466V86.0566ZM146.538 88.2211C145.92 88.2211 145.61 87.7573 145.61 87.2935C145.61 86.8297 145.92 86.2112 146.538 86.2112C147.157 86.2112 147.466 86.6751 147.466 87.2935C147.466 87.9119 147.157 88.2211 146.538 88.2211Z" fill="white"/>
<path d="M144.216 86.5203L144.526 85.9019C143.443 85.1289 141.743 85.5927 141.743 87.1388C141.743 88.8395 143.598 89.1487 144.526 88.3756L144.216 87.9118C143.443 88.5302 142.361 88.0664 142.361 87.1388C142.361 86.2111 143.443 85.9019 144.216 86.5203Z" fill="white"/>
<path d="M140.203 86.0565V85.7473H139.585V88.8394H140.203V86.9841C140.203 86.0565 140.976 86.0565 141.286 86.2111L141.44 85.5926C141.131 85.438 140.513 85.5926 140.203 86.0565Z" fill="white"/>
<path d="M137.264 85.5928C136.336 85.5928 135.718 86.2112 135.718 87.2935C135.718 88.9942 137.728 89.3034 138.655 88.5303L138.346 87.9119C137.728 88.5303 136.645 88.3757 136.491 87.4481H138.81C138.81 86.0566 138.192 85.5928 137.264 85.5928ZM136.491 86.9842C136.491 86.5204 136.8 86.2112 137.264 86.2112C137.728 86.2112 138.037 86.5204 138.037 86.9842H136.491Z" fill="white"/>
<path d="M134.015 87.7574V86.3659H135.097V85.7475H134.015V84.8198H133.241V85.7475H132.623V86.3659H133.241V87.7574C133.241 89.3035 134.788 88.9942 135.251 88.685L135.097 88.0666C134.788 88.2212 134.015 88.5304 134.015 87.7574Z" fill="white"/>
<path d="M130.302 86.5199C130.302 86.0561 131.384 86.0561 131.848 86.3653L132.157 85.7468C131.384 85.283 129.529 85.283 129.529 86.5199C129.529 87.7567 131.539 87.2929 131.539 87.7567C131.539 88.2206 130.302 88.2206 129.683 87.7567L129.374 88.5298C130.302 89.1482 132.157 88.9936 132.157 87.9114C132.157 86.6745 130.302 87.1383 130.302 86.5199Z" fill="white"/>
<path d="M128.141 86.0566C127.831 85.7474 127.522 85.5928 127.058 85.5928C126.131 85.5928 125.512 86.3658 125.512 87.2935C125.512 88.2211 126.131 88.9942 127.058 88.9942C127.522 88.9942 127.831 88.8395 128.141 88.5303V88.9942H128.759V85.902H128.141V86.0566ZM127.213 88.2211C126.594 88.2211 126.285 87.7573 126.285 87.2935C126.285 86.8296 126.594 86.2112 127.213 86.2112C127.831 86.2112 128.141 86.675 128.141 87.2935C128.141 87.9119 127.677 88.2211 127.213 88.2211Z" fill="white"/>
<path d="M123.656 85.5928C123.192 85.5928 122.883 85.7474 122.574 86.2112C122.419 85.902 121.956 85.5928 121.492 85.5928C121.182 85.5928 120.873 85.7474 120.564 86.0566V85.7474H119.791V88.8395H120.564C120.564 87.2935 120.409 86.2112 121.337 86.2112C122.265 86.2112 122.11 87.1389 122.11 88.8395H122.729C122.729 87.2935 122.574 86.2112 123.502 86.2112C124.429 86.2112 124.275 86.9842 124.275 88.8395H124.893V86.8296C124.893 86.0566 124.429 85.5928 123.656 85.5928Z" fill="white"/>
<path d="M137.881 80.7998C139.891 82.0366 142.21 82.8097 144.374 82.8097C150.868 82.8097 156.279 77.553 156.279 70.9048C156.279 64.4113 150.868 59 144.374 59C142.055 59 139.736 59.773 137.881 61.0099C144.065 66.112 144.22 75.8523 137.881 80.7998Z" fill="white"/>
<path d="M137.114 80.3365C143.143 75.5437 143.143 66.4218 137.114 61.6289C131.084 66.4218 131.084 75.5437 137.114 80.3365Z" fill="white"/>
<path d="M129.688 82.8097C132.007 82.8097 134.326 82.0366 136.181 80.7998C129.997 75.6977 129.997 66.112 136.181 61.0099C134.171 59.773 132.007 59 129.688 59C123.194 59 117.938 64.4113 117.938 70.9048C117.938 77.553 123.194 82.8097 129.688 82.8097Z" fill="white"/>
<path d="M176.279 63.0036H183.84C184.527 63.0036 186.59 62.7745 187.506 65.9823C188.194 68.0444 189.11 71.2522 190.485 76.064H190.943C192.318 71.0231 193.464 67.5862 193.922 65.9823C194.838 62.7745 197.13 63.0036 198.046 63.0036H205.149V85H197.817V71.9396H197.359L193.464 85H187.964L184.069 71.9396H183.382V85H176.279M208.128 63.0036H215.46V76.064H216.147L220.959 65.2949C221.876 63.2327 223.938 63.0036 223.938 63.0036H230.812V85H223.479V71.9396H223.021L218.209 82.7087C217.293 84.7709 215.002 85 215.002 85H208.128M240.664 78.3552V85H233.79V73.5435H256.245C255.328 76.2931 252.121 78.3552 248.455 78.3552" fill="white"/>
<path d="M256.703 72.1691C257.619 68.0448 254.87 63.0039 248.912 63.0039H233.332C233.79 67.8156 237.914 72.1691 242.268 72.1691" fill="white"/>
</svg>
