<svg width="215" height="30" viewBox="0 0 215 30" fill="none" xmlns="http://www.w3.org/2000/svg">
<g clip-path="url(#clip0_1260_3290)">
<path d="M16.8033 11.5292H7.97712V0H0V29.9961H7.97712V19.2854H16.8033V29.9961H24.8229V0L16.8033 7.00403V11.5292Z" fill="white"/>
<path d="M69.3087 7.00403L61.3315 0V29.9961H81.4885V22.501H69.3087V7.00403Z" fill="white"/>
<path d="M100.473 6.60257H106.424V11.4044H100.473V6.60257ZM100.473 17.6991H107.188V23.0973H100.473V17.6991ZM111.888 14.1873C113.629 12.7725 114.648 10.5859 114.648 8.14603C114.648 3.25841 111.039 0 105.779 0H92.8813V29.9961H105.991C111.977 29.9961 115.836 26.5233 115.836 21.3824C115.836 18.3383 114.35 15.6801 111.892 14.1834" fill="white"/>
<path d="M135.121 18.428H145.769V11.5292H135.121V7.02741H146.66V0H127.225V29.9961H147V22.8401H135.121V18.428Z" fill="white"/>
<path d="M167.134 7.42107H173.444V13.7937H167.134V7.42107ZM175.918 18.8567C179.568 17.4419 181.645 14.2731 181.645 9.98571C181.645 3.81577 177.442 0 170.484 0H159.199V29.9961H167.134V19.3673L174.177 29.9961H183.524L175.914 18.8567H175.918Z" fill="white"/>
<path d="M191.254 0V7.3704H198.722V29.9961H206.741V7.3704H214.166V0H191.254Z" fill="white"/>
<path d="M47.0679 11.5292H39.0483V30H47.0679V11.5292Z" fill="white"/>
<path d="M47.0679 0H39.0483V6.59867H47.0679V0Z" fill="#E20613"/>
</g>
<defs>
<clipPath id="clip0_1260_3290">
<rect width="214.167" height="30" fill="white"/>
</clipPath>
</defs>
</svg>
