<svg width="24" height="14" viewBox="0 0 24 14" fill="none" xmlns="http://www.w3.org/2000/svg">
<path fill-rule="evenodd" clip-rule="evenodd" d="M23.4495 0.948C23.6155 0.402 23.4495 0 22.6545 0H20.0295C19.3615 0 19.0535 0.347 18.8865 0.73C18.8865 0.73 17.5515 3.926 15.6605 6.002C15.0485 6.604 14.7705 6.795 14.4365 6.795C14.2695 6.795 14.0185 6.604 14.0185 6.057V0.948C14.0185 0.292 13.8345 0 13.2785 0H9.15051C8.73351 0 8.48251 0.304 8.48251 0.593C8.48251 1.214 9.42851 1.358 9.52551 3.106V6.904C9.52551 7.737 9.37251 7.888 9.03851 7.888C8.14851 7.888 5.98351 4.677 4.69851 1.003C4.44951 0.288 4.19751 0 3.52651 0H0.899512C0.149512 0 -0.000488281 0.347 -0.000488281 0.73C-0.000488281 1.412 0.889512 4.8 4.14451 9.281C6.31451 12.341 9.36951 14 12.1525 14C13.8215 14 14.0275 13.632 14.0275 12.997V10.684C14.0275 9.947 14.1855 9.8 14.7145 9.8C15.1045 9.8 15.7715 9.992 17.3295 11.467C19.1095 13.216 19.4025 14 20.4045 14H23.0295C23.7795 14 24.1555 13.632 23.9395 12.904C23.7015 12.18 22.8515 11.129 21.7245 9.882C21.1125 9.172 20.1945 8.407 19.9155 8.024C19.5265 7.533 19.6375 7.314 19.9155 6.877C19.9155 6.877 23.1155 2.451 23.4485 0.948" fill="white"/>
</svg>
